PathFileType	4	(X/Y/Z)	C:\Users\italobelli\Desktop\GitHub\PTbot_officialCBL\Personal_Results\ABD22_noisy2.trc
DataRate	CameraRate	NumFrames	NumMarkers	Units	OrigDataRate	OrigDataStartFrame	OrigNumFrames
106.125000	106.125000	47	9	m	106.125000	1	850
Frame#	Time		gu		centelbow		EpL		centpxt8		centijc7		ij		ts		aa		ai
			X1	Y1	Z1	X2	Y2	Z2	X3	Y3	Z3	X4	Y4	Z4	X5	Y5	Z5	X6	Y6	Z6	X7	Y7	Z7	X8	Y8	Z8	X9	Y9	Z9

1	0	-0.094794	-0.015005	0.16048	-0.13939	-0.25493	0.18395	-0.14597	-0.2467	0.21441	-0.046816	-0.15316	-0.008669	-0.046816	0.031938	-0.008669	0	0	0	-0.1305	0.025926	0.040553	-0.12483	0.021028	0.15959	-0.14499	-0.086652	0.041832
2	0.0094229	-0.094752	-0.015041	0.16051	-0.13923	-0.25497	0.18391	-0.14581	-0.24675	0.21438	-0.046816	-0.15316	-0.008669	-0.046816	0.031938	-0.008669	0	0	0	-0.13048	0.025904	0.040577	-0.1248	0.021002	0.15961	-0.14498	-0.086673	0.041854
3	0.018846	-0.09471	-0.015075	0.16054	-0.13907	-0.25501	0.18388	-0.14565	-0.2468	0.21435	-0.046816	-0.15316	-0.008669	-0.046816	0.031938	-0.008669	0	0	0	-0.13046	0.025882	0.0406	-0.12478	0.020977	0.15964	-0.14497	-0.086694	0.041875
4	0.028269	-0.094668	-0.015109	0.16057	-0.13891	-0.25505	0.18385	-0.14548	-0.24684	0.21432	-0.046816	-0.15316	-0.008669	-0.046816	0.031938	-0.008669	0	0	0	-0.13043	0.02586	0.040622	-0.12475	0.020952	0.15966	-0.14496	-0.086714	0.041894
5	0.037691	-0.094626	-0.015141	0.1606	-0.13875	-0.25509	0.18381	-0.14532	-0.24688	0.21429	-0.046816	-0.15316	-0.008669	-0.046816	0.031938	-0.008669	0	0	0	-0.13041	0.025838	0.040643	-0.12472	0.020928	0.15968	-0.14495	-0.086735	0.041912
6	0.047114	-0.094585	-0.015172	0.16062	-0.13859	-0.25512	0.18378	-0.14516	-0.24693	0.21426	-0.046816	-0.15316	-0.008669	-0.046816	0.031938	-0.008669	0	0	0	-0.13039	0.025817	0.040662	-0.1247	0.020904	0.1597	-0.14494	-0.086755	0.041928
7	0.056537	-0.094543	-0.015201	0.16065	-0.13843	-0.25516	0.18375	-0.145	-0.24697	0.21423	-0.046816	-0.15316	-0.008669	-0.046816	0.031938	-0.008669	0	0	0	-0.13037	0.025796	0.04068	-0.12467	0.020881	0.15971	-0.14493	-0.086775	0.041943
8	0.06596	-0.094502	-0.01523	0.16067	-0.13827	-0.25519	0.18372	-0.14484	-0.247	0.2142	-0.046816	-0.15316	-0.008669	-0.046816	0.031938	-0.008669	0	0	0	-0.13035	0.025775	0.040697	-0.12464	0.020858	0.15973	-0.14492	-0.086794	0.041957
9	0.075383	-0.094461	-0.015257	0.16069	-0.13812	-0.25522	0.18369	-0.14468	-0.24704	0.21417	-0.046816	-0.15316	-0.008669	-0.046816	0.031938	-0.008669	0	0	0	-0.13033	0.025755	0.040713	-0.12462	0.020835	0.15974	-0.14491	-0.086814	0.041969
10	0.084806	-0.09442	-0.015283	0.16072	-0.13796	-0.25526	0.18366	-0.14453	-0.24707	0.21415	-0.046816	-0.15316	-0.008669	-0.046816	0.031938	-0.008669	0	0	0	-0.13031	0.025735	0.040727	-0.12459	0.020813	0.15976	-0.1449	-0.086833	0.04198
11	0.094229	-0.094379	-0.015308	0.16074	-0.1378	-0.25529	0.18364	-0.14437	-0.24711	0.21412	-0.046816	-0.15316	-0.008669	-0.046816	0.031938	-0.008669	0	0	0	-0.13029	0.025715	0.04074	-0.12457	0.020792	0.15977	-0.14489	-0.086852	0.04199
12	0.10365	-0.094339	-0.015332	0.16076	-0.13764	-0.25532	0.18361	-0.14421	-0.24714	0.2141	-0.046816	-0.15316	-0.008669	-0.046816	0.031938	-0.008669	0	0	0	-0.13027	0.025695	0.040753	-0.12455	0.02077	0.15978	-0.14488	-0.086871	0.041998
13	0.11307	-0.0943	-0.015355	0.16077	-0.13748	-0.25534	0.18358	-0.14406	-0.24717	0.21407	-0.046816	-0.15316	-0.008669	-0.046816	0.031938	-0.008669	0	0	0	-0.13025	0.025676	0.040764	-0.12452	0.02075	0.15979	-0.14487	-0.086889	0.042005
14	0.1225	-0.09426	-0.015376	0.16079	-0.13733	-0.25537	0.18356	-0.1439	-0.2472	0.21405	-0.046816	-0.15316	-0.008669	-0.046816	0.031938	-0.008669	0	0	0	-0.13023	0.025657	0.040774	-0.1245	0.020729	0.1598	-0.14486	-0.086908	0.042011
15	0.13192	-0.094222	-0.015397	0.16081	-0.13717	-0.2554	0.18353	-0.14375	-0.24723	0.21402	-0.046816	-0.15316	-0.008669	-0.046816	0.031938	-0.008669	0	0	0	-0.13021	0.025638	0.040782	-0.12448	0.020709	0.15981	-0.14485	-0.086926	0.042016
16	0.14134	-0.094184	-0.015417	0.16082	-0.13702	-0.25543	0.18351	-0.1436	-0.24725	0.214	-0.046816	-0.15316	-0.008669	-0.046816	0.031938	-0.008669	0	0	0	-0.13019	0.025619	0.04079	-0.12446	0.02069	0.15982	-0.14484	-0.086944	0.042019
17	0.15077	-0.094147	-0.015436	0.16083	-0.13687	-0.25545	0.18349	-0.14345	-0.24728	0.21397	-0.046816	-0.15316	-0.008669	-0.046816	0.031938	-0.008669	0	0	0	-0.13017	0.025601	0.040797	-0.12444	0.020671	0.15982	-0.14483	-0.086961	0.042022
18	0.16019	-0.09411	-0.015454	0.16085	-0.13671	-0.25547	0.18346	-0.1433	-0.2473	0.21395	-0.046816	-0.15316	-0.008669	-0.046816	0.031938	-0.008669	0	0	0	-0.13015	0.025583	0.040802	-0.12442	0.020652	0.15983	-0.14482	-0.086979	0.042023
19	0.16961	-0.094074	-0.015471	0.16086	-0.13656	-0.2555	0.18344	-0.14315	-0.24733	0.21393	-0.046816	-0.15316	-0.008669	-0.046816	0.031938	-0.008669	0	0	0	-0.13013	0.025566	0.040807	-0.1244	0.020633	0.15983	-0.14481	-0.086996	0.042023
20	0.17903	-0.094039	-0.015487	0.16087	-0.13641	-0.25552	0.18342	-0.143	-0.24735	0.21391	-0.046816	-0.15316	-0.008669	-0.046816	0.031938	-0.008669	0	0	0	-0.13012	0.025548	0.04081	-0.12438	0.020615	0.15983	-0.1448	-0.087013	0.042023
21	0.18846	-0.094005	-0.015502	0.16088	-0.13627	-0.25554	0.1834	-0.14286	-0.24737	0.21389	-0.046816	-0.15316	-0.008669	-0.046816	0.031938	-0.008669	0	0	0	-0.1301	0.025531	0.040813	-0.12437	0.020597	0.15984	-0.14479	-0.087029	0.042021
22	0.19788	-0.093971	-0.015516	0.16088	-0.13612	-0.25556	0.18338	-0.14272	-0.24739	0.21386	-0.046816	-0.15316	-0.008669	-0.046816	0.031938	-0.008669	0	0	0	-0.13008	0.025514	0.040814	-0.12435	0.02058	0.15984	-0.14478	-0.087045	0.042018
23	0.2073	-0.093939	-0.01553	0.16089	-0.13598	-0.25558	0.18336	-0.14258	-0.24741	0.21384	-0.046816	-0.15316	-0.008669	-0.046816	0.031938	-0.008669	0	0	0	-0.13006	0.025498	0.040815	-0.12434	0.020562	0.15984	-0.14477	-0.087061	0.042014
24	0.21673	-0.093907	-0.015543	0.16089	-0.13583	-0.2556	0.18334	-0.14244	-0.24742	0.21382	-0.046816	-0.15316	-0.008669	-0.046816	0.031938	-0.008669	0	0	0	-0.13005	0.025482	0.040815	-0.12432	0.020546	0.15984	-0.14476	-0.087077	0.04201
25	0.22615	-0.093877	-0.015555	0.1609	-0.13569	-0.25562	0.18332	-0.1423	-0.24744	0.2138	-0.046816	-0.15316	-0.008669	-0.046816	0.031938	-0.008669	0	0	0	-0.13003	0.025466	0.040813	-0.12431	0.020529	0.15983	-0.14475	-0.087093	0.042004
26	0.23557	-0.093848	-0.015566	0.1609	-0.13555	-0.25564	0.1833	-0.14217	-0.24746	0.21378	-0.046816	-0.15316	-0.008669	-0.046816	0.031938	-0.008669	0	0	0	-0.13001	0.02545	0.040811	-0.1243	0.020513	0.15983	-0.14474	-0.087108	0.041997
27	0.24499	-0.093819	-0.015577	0.1609	-0.13542	-0.25566	0.18328	-0.14203	-0.24747	0.21376	-0.046816	-0.15316	-0.008669	-0.046816	0.031938	-0.008669	0	0	0	-0.13	0.025435	0.040808	-0.12428	0.020496	0.15983	-0.14473	-0.087123	0.04199
28	0.25442	-0.093792	-0.015586	0.1609	-0.13528	-0.25568	0.18327	-0.1419	-0.24749	0.21374	-0.046816	-0.15316	-0.008669	-0.046816	0.031938	-0.008669	0	0	0	-0.12998	0.02542	0.040804	-0.12427	0.020481	0.15982	-0.14472	-0.087137	0.041982
29	0.26384	-0.093766	-0.015596	0.1609	-0.13515	-0.25569	0.18325	-0.14178	-0.2475	0.21372	-0.046816	-0.15316	-0.008669	-0.046816	0.031938	-0.008669	0	0	0	-0.12996	0.025405	0.040799	-0.12427	0.020465	0.15982	-0.14471	-0.087152	0.041973
30	0.27326	-0.093742	-0.015604	0.1609	-0.13502	-0.25571	0.18323	-0.14165	-0.24751	0.2137	-0.046816	-0.15316	-0.008669	-0.046816	0.031938	-0.008669	0	0	0	-0.12995	0.02539	0.040793	-0.12426	0.02045	0.15981	-0.14471	-0.087166	0.041963
31	0.28269	-0.093719	-0.015612	0.16089	-0.13489	-0.25573	0.18321	-0.14153	-0.24753	0.21368	-0.046816	-0.15316	-0.008669	-0.046816	0.031938	-0.008669	0	0	0	-0.12993	0.025376	0.040786	-0.12425	0.020435	0.15981	-0.1447	-0.087179	0.041953
32	0.29211	-0.093697	-0.015619	0.16089	-0.13477	-0.25574	0.1832	-0.14141	-0.24754	0.21366	-0.046816	-0.15316	-0.008669	-0.046816	0.031938	-0.008669	0	0	0	-0.12992	0.025362	0.040779	-0.12424	0.02042	0.1598	-0.14469	-0.087193	0.041941
33	0.30153	-0.093676	-0.015626	0.16088	-0.13465	-0.25576	0.18318	-0.14129	-0.24755	0.21364	-0.046816	-0.15316	-0.008669	-0.046816	0.031938	-0.008669	0	0	0	-0.1299	0.025348	0.04077	-0.12424	0.020405	0.15979	-0.14468	-0.087206	0.041929
34	0.31095	-0.093657	-0.015632	0.16087	-0.13453	-0.25578	0.18316	-0.14118	-0.24756	0.21363	-0.046816	-0.15316	-0.008669	-0.046816	0.031938	-0.008669	0	0	0	-0.12989	0.025335	0.040761	-0.12424	0.02039	0.15978	-0.14467	-0.087219	0.041917
35	0.32038	-0.09364	-0.015638	0.16086	-0.13441	-0.25579	0.18315	-0.14106	-0.24757	0.21361	-0.046816	-0.15316	-0.008669	-0.046816	0.031938	-0.008669	0	0	0	-0.12987	0.025322	0.040751	-0.12423	0.020376	0.15977	-0.14466	-0.087231	0.041904
36	0.3298	-0.093624	-0.015643	0.16085	-0.1343	-0.25581	0.18313	-0.14095	-0.24758	0.21359	-0.046816	-0.15316	-0.008669	-0.046816	0.031938	-0.008669	0	0	0	-0.12986	0.025309	0.04074	-0.12423	0.020362	0.15976	-0.14465	-0.087243	0.04189
37	0.33922	-0.09361	-0.015648	0.16084	-0.13419	-0.25582	0.18311	-0.14085	-0.24759	0.21357	-0.046816	-0.15316	-0.008669	-0.046816	0.031938	-0.008669	0	0	0	-0.12984	0.025297	0.040729	-0.12423	0.020348	0.15975	-0.14464	-0.087255	0.041875
38	0.34865	-0.093597	-0.015652	0.16083	-0.13408	-0.25583	0.1831	-0.14075	-0.2476	0.21355	-0.046816	-0.15316	-0.008669	-0.046816	0.031938	-0.008669	0	0	0	-0.12983	0.025284	0.040717	-0.12424	0.020334	0.15974	-0.14463	-0.087267	0.04186
39	0.35807	-0.093586	-0.015656	0.16081	-0.13398	-0.25585	0.18308	-0.14065	-0.24761	0.21353	-0.046816	-0.15316	-0.008669	-0.046816	0.031938	-0.008669	0	0	0	-0.12982	0.025272	0.040704	-0.12424	0.02032	0.15972	-0.14462	-0.087278	0.041845
40	0.36749	-0.093577	-0.015659	0.16079	-0.13387	-0.25586	0.18306	-0.14055	-0.24762	0.21351	-0.046816	-0.15316	-0.008669	-0.046816	0.031938	-0.008669	0	0	0	-0.1298	0.025261	0.04069	-0.12424	0.020307	0.15971	-0.14461	-0.087289	0.041829
41	0.37691	-0.09357	-0.015663	0.16078	-0.13378	-0.25588	0.18305	-0.14046	-0.24763	0.21349	-0.046816	-0.15316	-0.008669	-0.046816	0.031938	-0.008669	0	0	0	-0.12979	0.025249	0.040676	-0.12425	0.020293	0.1597	-0.1446	-0.087299	0.041812
42	0.38634	-0.093564	-0.015665	0.16076	-0.13368	-0.25589	0.18303	-0.14037	-0.24764	0.21348	-0.046816	-0.15316	-0.008669	-0.046816	0.031938	-0.008669	0	0	0	-0.12978	0.025238	0.040661	-0.12426	0.02028	0.15968	-0.14459	-0.08731	0.041795
43	0.39576	-0.093561	-0.015668	0.16074	-0.13359	-0.25591	0.18301	-0.14028	-0.24765	0.21346	-0.046816	-0.15316	-0.008669	-0.046816	0.031938	-0.008669	0	0	0	-0.12976	0.025228	0.040645	-0.12427	0.020267	0.15967	-0.14458	-0.087319	0.041778
44	0.40518	-0.093559	-0.01567	0.16072	-0.13351	-0.25592	0.183	-0.1402	-0.24766	0.21344	-0.046816	-0.15316	-0.008669	-0.046816	0.031938	-0.008669	0	0	0	-0.12975	0.025217	0.040628	-0.12428	0.020254	0.15966	-0.14457	-0.087329	0.04176
45	0.41461	-0.093559	-0.015672	0.16069	-0.13342	-0.25593	0.18298	-0.14012	-0.24767	0.21342	-0.046816	-0.15316	-0.008669	-0.046816	0.031938	-0.008669	0	0	0	-0.12974	0.025207	0.040611	-0.12429	0.02024	0.15964	-0.14457	-0.087338	0.041742
46	0.42403	-0.093562	-0.015673	0.16067	-0.13335	-0.25595	0.18296	-0.14005	-0.24768	0.2134	-0.046816	-0.15316	-0.008669	-0.046816	0.031938	-0.008669	0	0	0	-0.12972	0.025197	0.040594	-0.1243	0.020227	0.15962	-0.14456	-0.087347	0.041723
47	0.43345	-0.093566	-0.015675	0.16064	-0.13327	-0.25596	0.18295	-0.13997	-0.24769	0.21338	-0.046816	-0.15316	-0.008669	-0.046816	0.031938	-0.008669	0	0	0	-0.12971	0.025187	0.040576	-0.12432	0.020215	0.15961	-0.14455	-0.087355	0.041705
